<?xml version="1.0" encoding="UTF-8"?><svg id="Capa_1" xmlns="http://www.w3.org/2000/svg" viewBox="0 0 135.04 135.04"><defs><style>.cls-1{fill:#226ffd;stroke-width:0px;}</style></defs><path class="cls-1" d="m67.52,0C30.23,0,0,30.23,0,67.52s30.23,67.52,67.52,67.52,67.52-30.23,67.52-67.52S104.81,0,67.52,0Zm-18,95.94c-.42-.03-.84-.08-1.24-.17-5.82-1.38-7.68-7.72-3.54-12.26,5.15-5.65,10.39-11.21,15.6-16.8,4.55-4.89,9.11-9.77,13.66-14.66.45-.48,2.15-2.28,2.89-3.14h-34.4v-11.26c.75,0,1.48,0,2.21,0,13.49,0,26.98,0,40.47.01.95,0,1.92.13,2.86.28,2.95.49,5.09,2.09,6.08,4.94,1.01,2.89.13,5.42-1.9,7.6-6.34,6.79-12.69,13.57-19.03,20.36l-23.66,25.12Zm46.08.37h-17.8c-.03-.32-.05-.65-.05-.99,0-4.91,4.03-8.88,8.98-8.85,4.92.03,8.97,4.07,8.93,8.91,0,.31-.02.62-.05.93Z"/></svg>