<?xml version="1.0" encoding="UTF-8"?><svg id="Capa_1" xmlns="http://www.w3.org/2000/svg" viewBox="0 0 666.84 135.04"><defs><style>.cls-1{fill:#226ffd;}.cls-1,.cls-2,.cls-3{stroke-width:0px;}.cls-2{fill:#fff;}.cls-3{fill:#fcd50b;}</style></defs><circle class="cls-3" cx="67.52" cy="67.52" r="67.52"/><g id="FjsEcN.tif"><path class="cls-3" d="m467.41,88.85h-6.04c0-.4,0-.79,0-1.17-.01-8.04.06-16.09-.07-24.13-.1-5.89-4.56-10.5-10.43-11.27-4.1-.53-7.85.29-11.2,2.66-3.23,2.28-4.93,5.42-4.93,9.43,0,7.74,0,15.48,0,23.22,0,.4,0,.79,0,1.24h-6.07V26.07h6.09v25.64c1.33-.9,2.47-1.79,3.71-2.51,6.74-3.87,13.61-4.34,20.4-.27,4.77,2.87,7.42,7.3,8.29,12.78.16.99.24,2.01.24,3.01.02,7.74.01,15.48.01,23.22,0,.27,0,.53,0,.92Z"/><path class="cls-3" d="m607.12,26.07h6.08c0,4.32,0,8.58,0,12.85s0,8.45,0,12.79c1.33-.91,2.47-1.79,3.71-2.51,6.81-3.91,13.75-4.36,20.57-.17,4.71,2.89,7.33,7.31,8.13,12.77.19,1.29.25,2.61.25,3.92.02,7.27.01,14.54.01,21.81v1.29h-6.05c0-.43,0-.83,0-1.22-.01-7.98.07-15.95-.07-23.93-.1-5.74-3.97-10.15-9.63-11.23-5.12-.98-9.71.22-13.54,3.8-2.29,2.14-3.39,4.87-3.38,8.04.02,7.77,0,15.55,0,23.32,0,.4,0,.79,0,1.24h-6.08V26.07Z"/><path class="cls-3" d="m564.92,88.86h-6.01c0-.46,0-.86,0-1.25-.01-6.29.07-12.59-.07-18.88-.1-4.24-1.21-8.27-3.88-11.67-3.79-4.84-8.91-6.38-14.77-5.18-10.61,2.18-16.1,14.03-11.02,23.56,4.13,7.75,14.39,11.24,22.7,6.95.74-.38,1.48-.77,2.4-1.25,0,2.04.01,3.94-.02,5.83,0,.18-.3.43-.51.51-8.06,3.06-15.96,2.88-23.33-1.82-7.23-4.61-10.05-11.58-9.25-19.93.94-9.9,7.8-17.53,17.57-19.45,7.55-1.49,14.51-.13,20.05,5.69,3.31,3.48,5.01,7.78,5.69,12.46.32,2.22.42,4.48.44,6.73.06,5.52.02,11.04.02,16.55v1.14Z"/><path class="cls-3" d="m587.72,34.16h5.87v13.07h9.04v5.6h-8.94c-.03.39-.07.68-.07.96,0,7.2-.05,14.41.03,21.61.02,1.65.1,3.47.8,4.91,1.39,2.88,3.88,4.39,7.22,4.15.24-.02.47-.03.71-.04.07,0,.13.01.28.03v4.68c-4.45,1.37-8.49.3-11.71-3.15-2.24-2.4-3.3-5.24-3.3-8.53.02-14.24,0-28.47,0-42.71,0-.16.03-.33.06-.58Z"/><path class="cls-3" d="m579.24,88.86h-5.95V26.1h5.95v62.76Z"/><path class="cls-3" d="m494.4,90.3c-3.2,0-6.12-.58-8.78-1.75-2.66-1.16-4.93-2.75-6.83-4.76-1.9-2-3.37-4.35-4.43-7.03-1.06-2.68-1.59-5.51-1.59-8.49s.53-5.8,1.59-8.45c1.06-2.65,2.55-4.99,4.47-6.99,1.92-2,4.21-3.59,6.87-4.76,2.65-1.16,5.58-1.75,8.78-1.75s6.11.6,8.74,1.79c2.63,1.19,4.86,2.78,6.71,4.76,1.84,1.98,3.26,4.28,4.27,6.91,1,2.63,1.5,5.35,1.5,8.17,0,.6-.01,1.14-.04,1.63-.03.49-.07.87-.12,1.14h-35.2c.16,2.11.65,4.04,1.46,5.77.81,1.74,1.87,3.23,3.17,4.47,1.3,1.25,2.78,2.22,4.43,2.93,1.65.7,3.4,1.06,5.24,1.06,1.3,0,2.57-.18,3.82-.53,1.25-.35,2.41-.83,3.5-1.42,1.08-.6,2.05-1.33,2.89-2.19.84-.87,1.48-1.84,1.91-2.93l6.18,1.71c-.7,1.57-1.67,3.01-2.89,4.31-1.22,1.3-2.63,2.43-4.23,3.37-1.6.95-3.37,1.69-5.32,2.24s-3.98.81-6.1.81Zm14.55-24.88c-.16-2-.66-3.86-1.5-5.57-.84-1.71-1.9-3.16-3.17-4.35-1.27-1.19-2.75-2.13-4.43-2.8-1.68-.68-3.47-1.02-5.37-1.02s-3.69.34-5.37,1.02c-1.68.68-3.16,1.63-4.43,2.84-1.27,1.22-2.3,2.67-3.09,4.35-.79,1.68-1.26,3.52-1.42,5.53h28.78Z"/></g><path class="cls-1" d="m346.32,56.95c-.81-.48-1.25-.73-1.67-.99-9.58-5.92-20.83.95-21.29,11.18-.27,6,3.71,11.67,9.52,13.59,5.88,1.94,12.4-.27,15.8-5.39,1.6-2.41,2.43-5.05,2.43-7.96-.01-11.04.02-27.83-.04-38.87,0-1.41.42-1.82,1.79-1.74,1.96.11,3.92.07,5.89.01.96-.03,1.36.25,1.36,1.29-.03,11.8.29,29.37-.11,41.16-.41,12.09-11.17,21.95-24.12,21.22-11.54-.65-20.95-10.02-21.53-21.49-.59-11.78,7.66-22.08,19.14-23.92,3.96-.63,7.81-.25,11.58,1.11.9.33,1.28.8,1.27,1.77-.04,2.85-.02,5.71-.02,9.02Z"/><path class="cls-1" d="m403.78,89.76c0-5.96.02-11.64,0-17.33,0-2.24.09-4.51-.2-6.72-.95-7.23-7.5-12.52-14.49-11.89-7.74.7-13.17,6.72-12.91,14.32.36,10.64,12,16.8,21.14,11.19.43-.27.86-.53,1.55-.96.08.72.16,1.16.16,1.6.01,2.44-.04,4.88.04,7.31.03,1.04-.35,1.52-1.3,1.87-10.12,3.75-21.79-.37-27.32-9.68-5.58-9.39-4.24-20.83,3.55-28.23,6.5-6.18,14.29-8.08,22.83-5.4,8.48,2.66,13.66,8.66,15.59,17.35.36,1.62.49,3.31.5,4.98.06,6.64,0,13.29.05,19.93.01,1.33-.38,1.74-1.71,1.69-2.42-.1-4.85-.03-7.47-.03Z"/><path class="cls-1" d="m236.94,90.46c-12.57,0-22.85-10.18-22.84-22.61,0-12.98,10.16-23.15,23.09-23.12,12.54.03,22.91,10.4,22.71,23.07-.21,12.9-10.39,22.72-22.95,22.65Zm13.86-22.78c.01-7.65-6.21-13.91-13.82-13.91-7.54,0-13.81,6.26-13.82,13.79-.01,7.64,6.13,13.85,13.7,13.86,7.77.01,13.93-6.06,13.94-13.74Z"/><path class="cls-1" d="m661.12,49.09c-3.19-.01-5.66-2.47-5.65-5.62,0-3.12,2.56-5.63,5.7-5.62,3.12.02,5.69,2.58,5.67,5.66-.02,3.14-2.53,5.59-5.71,5.58Z"/><path class="cls-1" d="m307.43,90.41h-8.79v-23.59c0-4.49-.94-7.85-2.83-10.09-1.88-2.24-4.59-3.36-8.12-3.36s-6.23,1.12-8.12,3.36c-1.88,2.24-2.83,5.61-2.83,10.09v23.59h-8.79v-23.59c0-7.3,1.79-12.78,5.38-16.46,3.59-3.68,8.37-5.52,14.35-5.52s10.76,1.84,14.35,5.52c3.59,3.68,5.38,9.16,5.38,16.46v23.59Z"/><path class="cls-2" d="m95.61,96.31c.03-.3.05-.61.05-.93.04-4.85-4.01-8.88-8.93-8.91-4.95-.03-8.97,3.94-8.98,8.85,0,.34.02.67.05.99h17.8Z"/><path class="cls-2" d="m74,52.05c-4.55,4.89-9.11,9.77-13.66,14.66-5.21,5.59-10.45,11.15-15.6,16.8-4.14,4.54-2.28,10.88,3.54,12.26.4.1.82.14,1.24.17l23.66-25.12c6.34-6.79,12.69-13.57,19.03-20.36,2.03-2.18,2.91-4.7,1.9-7.6-.99-2.85-3.13-4.45-6.08-4.94-.94-.16-1.91-.28-2.86-.28-13.49-.02-26.98-.01-40.47-.01-.73,0-1.46,0-2.21,0v11.26h34.4c-.74.86-2.44,2.66-2.89,3.14Z"/><path class="cls-1" d="m207.2,80.84c-8.1,0-16.2,0-24.31,0h-.66c.11-.14.15-.2.2-.25,1.46-1.58,2.93-3.16,4.4-4.74,2.05-2.2,4.1-4.4,6.16-6.59,2.08-2.23,4.16-4.46,6.25-6.69,1.94-2.07,3.9-4.12,5.82-6.2.77-.84,1.61-1.62,2.22-2.61,1.59-2.58.27-5.51-1.2-6.68-1.4-1.12-3.07-1.4-4.78-1.4-10.63-.02-21.27-.01-31.9-.01-.57,0-.58,0-.58.59,0,2.59,0,5.18,0,7.77q0,.7.72.7c7.97,0,15.94,0,23.92,0,.13,0,.26,0,.39,0,.11,0,.26-.05.32.07.07.13-.08.2-.15.28-.61.7-1.2,1.41-1.83,2.08-2.17,2.33-4.34,4.65-6.52,6.97-1.28,1.37-2.57,2.74-3.85,4.12-2.58,2.77-5.16,5.55-7.73,8.33-1.31,1.41-2.63,2.81-3.89,4.26-1.12,1.29-1.62,2.81-1.31,4.51.43,2.42,2.63,4.23,5.11,4.28,2.23.04,4.45.04,6.68.05,8.87.05,17.74.02,26.61.02.58,0,.61-.03.61-.61,0-2.52,0-5.04,0-7.55q0-.7-.69-.7Z"/></svg>